<?xml version="1.0" encoding="UTF-8"?>
<svg version="1.1" viewBox="0 0 1412 1624" width="500" height="800" xmlns="http://www.w3.org/2000/svg">
<path transform="translate(934,254)" d="m0 0h20l17 1 27 4 20 5 23 8 24 11 18 11 11 8 4 5-8-2 7 8 8 10 6 7 8 7 9 9 7 8 9 11-1 2-12-13-4-5-6-5-5-5-12-11-14-9-10-6-3-2-1 5-9 5h-2l7 8 10 9 4 2 1-6 5 2v2l4 2 10 11 9 11 6 7 1 4-5-2-8-6-2-1 6 9 13 13 6 4v2h-2l3 9 8 15v2l9-1 1 2v26l2 13 3 8-1 3-5-8-3-2 2 8v5l-3 1 3 12v26l-3 20-1 10v18l-6-4-4-3-1 10-2 9v8l3 11v7l-2-1-2-7-3 3-11 25-8 16-8 15-12 19-10 13-14 17-7 8-26 26-11 9-11 10-14 11-15 12-19 14-14 10-18 12 4 2 16-6 19-10 22-15 16-12 10-8 13-10h3l-8 9-8 7-9 8-13 10-15 11-23 15-24 14-27 15-16 9-17 9-26 13-2-1 9-6 25-13 21-10 1-2-19 7-5 2-3-1 16-8 24-13 15-9-1-5-7 1-16 8-32 17-49 26-28 13-16 7-26 10-29 9h-4l12 27 9 19 11 18 11 14 6 5 3 6 4 13 4 6 6 7 5 4v3h-2l4 7 8 10 9 10 7 5 8 1 9 1 9 6 12 12 7 8 6 8v2l-5-1-10-7 2 5 12 14 14 15 5 5-2 7 10 10 7 3-1 6 4 6 7 7 7 8 7 7 6 5 6 7 6 5 2 3 3 1 1-3 2 1 4 9 9 11 9 10 4 5 7 3 6-1 10 9 11 11 13 9 6 2-1 4-2 2v3l14 7 19 13 15 8-4-8 1-2 7 7 7 8 11 11 11 9 10 7 6 2-10-7-1-4 6-2-4-6-5-4-7-12-7-8 1-8-4-6-1-8h2l-6-8-6-14-2-10 5-6-8-4-9-3-4-4-1-8-4-1-4-10-4-6-9-10-8-7-9-13-12-29-7-11-4-6-6-7-2-5v-24l3-11 3-5 2-1h6l9 6 7 7 11 15 11 18 14 18 6 15 7 21 7 10 11 12 10 13 8 14 4 11 14 19 3 10 3 6 6 2-1 5h-2l12 23 12 16 14 19 11 16 11 17 1 7-3 2-18-1v2l2 1-8 1-4 2-7 1-1 1h-10l-2 5-9 3h-10l-8 3-10-1-5-1-6 2-5 1h-9l-13 2-1 1-10 1-1 1-23 2-16 1-9 3-38 2-20-2-12-3-11-2-17 1-13 1h-12l-12-2-12-6-10-9-1-6 2-4 8-5 11-4 10-3 5 1v2h10l13-3 1-5 6-1 14 4 5-4h7l3 4 5-1 6-1 3 1 4-2 7-1 2 3-2 4 24-6 4 2h6l2-2 4 1v2h5l3-5 7-1 9-1 3 2v2l5-2 2-4 3-1 4 2h7l6-6 13-2 9-2 9 2 1-3-5-2-17-8-42-22-13-8-15-9-22-14-20-14-18-13-13-10-10-8-11-9-14-12-10-9-8-7-17-16-26-26-7-8-10-11-7-8-12-14-21-27-13-18-24-36-15-25-16-29-15-30-9-19-8-15v-2l-18 5-21 4-14 2-32 9-26 5-19 3-32 3-17 1h-93l-30-1 4-2 64-6 64-8 54-8 49-9 45-10 12-3v-4l-13-24-8-11-3-5-19-70-7-29-2-12 4-7-1-11-11-41-5-40v-23l4-54v-7h4l5-29 6-24 11-31 15-37 9-21 4-3h2l2-4 7-10 11-17 3-3-2 9-2 4v3l9-10 5-5 9-8 4-6 1 3-2 7 5-4 9-11 13-16 11-10 6-4-2-5 8-5 32-16 17-8 22-8 11-3 6-5 7-8 8-6 6-3 6-1 9 3 11-1 15-2-1-2h-12l3-2 15-2zm-35 71-26 4-16 5-18 8-21 11-12 8-14 10-12 11-8 7-8 8-9 11-7 8-5 8-8 6-10 14-8 15-9 27-4 10-8 15-1 4 5-1 6-12-1 6-5 10-4 5-10 18-4 13-4 31h4l4-6-1 7-5 11-4 10-6 27-3 30-1 24 2 40 2 25 6-1 4 23 6 37 5 19 17 40 5 11 3 1 18-7 3-4 24-9 35-14 30-13 30-14 19-9 22-12 18-10 13-8 20-13 14-10 12-9 11-9 20-18 23-23 7-6 7-8 9-14 11-22-1 7 4-1 8-13 12-21 8-16 12-25 2-9-3-7v-14l4-8 5-5 1-3 1-14v-27l-2-10h-2l-4-19-6-21-8-20-9-19-12-15-9-11-11-11-16-12-13-8-16-8-19-7-19-5-17-3-10-1z" fill="currentColor"/>
<path transform="translate(117,903)" d="m0 0 9 1 22 7 7 2v2l-2 1h-14l-18-8-4-4z" fill="currentColor"/>
<path transform="translate(869,869)" d="m0 0 4 1-16 9-20 10h-6l-2-1 1-3 14-5 19-9z" fill="currentColor"/>
<path transform="translate(592,730)" d="m0 0 4 1 3 7v11l-3-3-5-10v-5z" fill="currentColor"/>
<path transform="translate(287,931)" d="m0 0h12l5 3-3 2h-10l-6-1v-3z" fill="currentColor"/>
<path transform="translate(203,916)" d="m0 0h2l4 7 9 2 13 1v1l-23 1-4-3v-5z" fill="currentColor"/>
<path transform="translate(613,795)" d="m0 0 3 1 8 20-1 2-7-10-3-10z" fill="currentColor"/>
<path transform="translate(835,865)" d="m0 0 3 1-10 5-8 3-4-1 16-7z" fill="currentColor"/>
</svg>
